<?xml version="1.0" standalone="no"?>
<!DOCTYPE svg PUBLIC "-//W3C//DTD SVG 20010904//EN"
 "http://www.w3.org/TR/2001/REC-SVG-20010904/DTD/svg10.dtd">
<svg version="1.0" xmlns="http://www.w3.org/2000/svg"
 width="840.000000pt" height="840.000000pt" viewBox="0 0 840.000000 840.000000"
 preserveAspectRatio="xMidYMid meet">
<metadata>
Created by potrace 1.14, written by Peter Selinger 2001-2017
</metadata>
<g transform="translate(0.000000,840.000000) scale(0.100000,-0.100000)"
fill="#000000" stroke="none">
<path d="M3966 8393 c-1 -2 -56 -5 -122 -7 -127 -6 -243 -14 -284 -22 -14 -2
-50 -7 -80 -10 -30 -4 -89 -13 -130 -20 -41 -8 -91 -16 -110 -19 -19 -3 -44
-9 -55 -12 -11 -4 -22 -7 -25 -8 -122 -23 -424 -109 -440 -125 -3 -3 -9 -5
-15 -5 -20 -1 -95 -28 -95 -35 0 -4 -7 -7 -15 -7 -13 0 -84 -27 -197 -76 -27
-11 -48 -25 -48 -29 0 -5 -5 -6 -10 -3 -6 3 -24 -3 -40 -15 -17 -12 -30 -18
-30 -14 0 4 -8 0 -17 -9 -10 -8 -21 -16 -26 -16 -28 -2 -337 -177 -337 -191 0
-6 -4 -9 -9 -8 -15 5 -301 -192 -309 -214 -2 -4 -8 -8 -14 -8 -5 0 -15 -6 -22
-12 -22 -22 -108 -93 -123 -101 -7 -5 -11 -13 -7 -18 3 -5 2 -9 -3 -8 -16 4
-43 -13 -43 -27 0 -8 -4 -13 -8 -12 -12 4 -72 -54 -66 -64 3 -5 2 -7 -3 -6
-12 4 -63 -38 -63 -51 0 -6 -4 -11 -9 -11 -16 0 -101 -92 -94 -103 3 -6 1 -7
-5 -3 -12 7 -189 -190 -184 -205 1 -5 -5 -9 -13 -9 -8 0 -15 -7 -15 -15 0 -8
-4 -15 -9 -15 -4 0 -21 -19 -37 -42 -16 -24 -35 -49 -42 -57 -8 -8 -24 -30
-37 -50 -12 -20 -30 -42 -39 -50 -9 -7 -16 -17 -16 -21 0 -4 -29 -51 -65 -104
-36 -53 -65 -99 -65 -101 0 -3 -12 -23 -26 -45 -15 -22 -23 -44 -18 -51 4 -7
3 -10 -3 -6 -9 6 -84 -122 -133 -228 -12 -27 -33 -74 -47 -103 -13 -29 -21
-58 -17 -64 4 -6 3 -8 -4 -4 -13 8 -26 -29 -16 -45 4 -7 3 -9 -4 -5 -13 8 -47
-78 -37 -95 5 -7 4 -10 -3 -6 -12 8 -45 -80 -35 -96 3 -6 1 -7 -5 -3 -7 4 -13
1 -13 -8 -2 -17 -5 -33 -9 -41 -1 -3 -3 -8 -5 -12 -1 -5 -5 -16 -9 -25 -4 -9
-25 -76 -46 -150 -29 -102 -35 -136 -26 -147 8 -11 8 -13 -1 -8 -15 9 -15 9
-48 -163 -26 -133 -36 -196 -39 -243 -2 -30 -7 -60 -10 -66 -4 -6 -1 -11 6
-11 9 0 10 -2 2 -8 -11 -6 -17 -49 -29 -195 -2 -34 0 -45 8 -40 8 4 7 1 -1 -9
-8 -10 -12 -41 -11 -82 1 -37 -1 -69 -4 -73 -4 -3 -2 -12 4 -20 6 -7 8 -13 3
-13 -16 0 1 -369 22 -490 3 -14 7 -43 9 -65 2 -22 7 -56 10 -75 3 -19 8 -55
11 -80 3 -25 10 -47 15 -48 5 -2 7 -7 4 -12 -6 -10 24 -168 36 -192 5 -10 9
-27 9 -37 0 -11 5 -23 10 -26 6 -4 8 -11 4 -16 -3 -5 0 -26 7 -47 7 -20 14
-42 15 -48 4 -25 48 -159 53 -164 3 -3 7 -14 9 -25 1 -11 7 -29 11 -40 5 -11
23 -58 41 -105 18 -47 41 -103 53 -125 11 -22 19 -41 17 -43 -7 -8 24 -61 33
-55 6 3 7 1 3 -5 -7 -12 63 -164 74 -157 3 2 6 -6 6 -18 -1 -12 4 -21 11 -20
7 2 10 -3 7 -10 -2 -7 11 -39 31 -71 19 -32 35 -60 35 -63 0 -14 48 -72 55
-65 5 4 5 1 1 -5 -7 -13 22 -73 36 -73 4 0 7 -3 6 -7 -4 -14 49 -83 57 -75 5
4 5 1 1 -5 -6 -12 38 -83 57 -91 4 -2 7 -10 7 -18 0 -7 9 -19 20 -26 11 -7 20
-18 20 -25 0 -6 10 -19 22 -27 12 -9 19 -16 14 -16 -5 0 -3 -6 4 -14 6 -8 19
-12 28 -9 14 4 14 3 3 -5 -12 -8 -2 -25 50 -86 35 -42 67 -76 71 -76 4 0 8 -4
8 -10 0 -5 17 -27 38 -50 l37 -40 109 109 c70 71 105 114 101 122 -6 8 -4 10
4 4 15 -8 93 63 85 77 -3 5 -1 7 4 6 12 -4 108 92 104 104 -1 5 1 7 6 4 5 -3
16 4 25 15 16 18 14 23 -6 20 -5 -1 -6 2 -3 7 6 10 -73 98 -86 94 -5 -1 -7 2
-3 8 3 6 -1 17 -9 26 -9 8 -42 50 -73 92 -32 42 -66 86 -75 96 -10 11 -18 25
-18 32 0 7 -4 14 -8 16 -4 2 -18 20 -31 41 -13 20 -27 34 -33 31 -6 -4 -8 -2
-5 4 8 11 -23 72 -36 72 -5 0 -5 5 -2 10 3 6 2 10 -3 10 -5 0 -17 18 -27 40
-10 22 -22 37 -28 33 -6 -3 -7 -1 -3 5 3 6 -3 26 -14 44 -11 18 -29 54 -41 80
-13 26 -27 44 -32 41 -6 -3 -7 -1 -4 4 4 6 -10 49 -32 95 -21 45 -44 100 -51
122 -7 23 -15 34 -20 27 -3 -7 -7 2 -7 19 0 18 -4 35 -9 38 -5 4 -10 16 -12
27 -1 11 -7 29 -12 40 -12 28 -36 103 -45 142 -3 18 -10 33 -13 33 -4 0 -8 15
-9 32 -2 18 -7 34 -13 36 -6 2 -8 8 -5 13 3 5 1 28 -6 51 -6 24 -13 57 -16 73
-3 17 -8 32 -11 35 -4 3 -8 16 -8 30 -2 21 -15 109 -39 251 -5 29 -15 134 -20
219 -6 88 -5 348 1 435 4 44 7 106 8 137 0 32 4 58 9 58 4 0 7 12 6 28 0 24 3
47 17 122 3 14 8 41 11 60 3 19 10 43 15 53 6 11 5 17 -3 17 -9 0 -9 3 0 14 6
8 13 28 14 45 1 17 6 31 11 31 5 0 2 8 -5 17 -8 9 -9 14 -3 11 6 -4 26 47 51
135 42 145 90 283 116 334 24 46 31 77 17 68 -9 -5 -11 -4 -6 4 4 6 11 9 16 6
11 -7 23 32 14 46 -4 7 -3 9 3 6 9 -6 70 111 66 125 -2 5 2 8 7 8 6 0 10 4 10
10 0 5 20 43 45 85 24 41 41 75 37 75 -4 0 -2 4 4 8 13 8 86 122 79 122 -3 0
4 9 15 20 12 12 18 26 14 33 -4 7 -4 9 1 5 11 -11 58 60 49 74 -4 6 -3 8 4 5
12 -8 74 72 66 85 -3 5 -2 7 3 6 5 -2 43 38 85 87 42 50 105 121 142 159 36
38 62 74 59 79 -3 6 -1 7 4 4 6 -4 41 21 77 56 86 81 126 117 164 146 17 13
29 28 26 33 -3 4 -2 8 3 7 15 -3 28 2 48 17 17 13 18 16 5 25 -13 9 -12 10 3
5 11 -4 47 16 105 57 48 34 89 65 90 69 2 5 10 8 18 8 8 0 22 8 32 18 10 9 36
26 57 37 22 11 47 28 57 38 10 9 20 17 23 17 3 0 10 0 16 0 5 0 7 5 3 12 -4 7
-3 8 5 4 6 -4 24 0 39 10 25 17 181 97 192 99 3 1 31 13 64 28 32 16 102 44
155 64 53 20 98 39 101 42 3 4 11 6 18 7 6 1 21 2 33 3 16 1 19 5 14 19 -5 13
-3 14 6 5 11 -11 29 -8 89 14 8 3 22 7 30 8 8 1 49 11 90 23 70 19 175 43 210
47 8 1 33 5 55 9 71 12 109 18 133 19 12 0 22 4 22 7 0 4 14 4 31 2 25 -4 30
-2 24 9 -7 11 -5 12 6 4 15 -11 39 -13 54 -3 6 3 143 4 305 2 346 -4 419 -7
414 -15 -2 -4 27 -10 64 -14 37 -4 76 -9 87 -11 11 -2 34 -7 50 -10 17 -2 67
-14 112 -24 46 -11 93 -22 105 -24 13 -3 48 -12 78 -21 74 -22 73 -21 90 -27
101 -37 230 -79 234 -76 2 1 12 -5 22 -14 11 -9 21 -17 24 -17 8 0 40 -12 99
-38 29 -12 58 -20 64 -16 5 3 7 2 4 -4 -8 -12 101 -66 115 -57 6 4 9 3 5 -2
-3 -5 12 -19 34 -31 22 -12 37 -16 33 -10 -3 7 0 5 8 -3 16 -19 114 -80 128
-80 6 0 10 -3 10 -8 0 -9 61 -38 73 -34 5 1 6 -2 2 -8 -3 -5 2 -13 12 -17 10
-4 20 -9 23 -13 3 -3 52 -40 110 -82 97 -70 135 -101 229 -185 20 -18 41 -33
46 -33 18 0 267 258 261 269 -4 6 -1 9 6 6 8 -3 50 32 101 84 l87 89 -41 36
c-23 19 -46 33 -52 29 -6 -3 -7 -1 -4 4 4 6 -13 27 -38 47 -24 20 -50 42 -57
49 -24 23 -98 79 -98 74 0 -3 -14 8 -30 23 -41 39 -240 173 -256 173 -7 0 -11
4 -8 9 3 4 1 8 -3 8 -5 0 -40 20 -78 45 -39 25 -76 43 -83 40 -7 -3 -11 -1 -8
4 7 10 -89 63 -98 54 -3 -3 -6 -1 -6 5 0 11 -208 116 -270 137 -12 4 -64 26
-105 45 -25 12 -50 18 -54 15 -5 -3 -11 0 -13 5 -2 6 -10 12 -18 14 -16 3 -43
13 -75 26 -51 22 -118 40 -127 34 -6 -4 -8 -2 -5 3 8 12 -50 26 -66 16 -6 -3
-7 -1 -3 5 4 7 1 12 -6 13 -7 0 -20 2 -28 5 -171 45 -252 65 -282 69 -20 3
-48 9 -62 15 -19 7 -26 6 -26 -3 0 -8 -3 -9 -8 -1 -6 9 -95 28 -187 38 -16 2
-48 7 -70 10 -77 11 -141 16 -285 22 -212 8 -251 9 -254 7z m880 -159 c1 -9 0
-13 -4 -10 -3 4 -7 14 -8 22 -1 9 0 13 4 10 3 -4 7 -14 8 -22z m-1239 -69 c0
-8 -4 -12 -9 -9 -5 3 -6 10 -3 15 9 13 12 11 12 -6z m-677 -1 c0 -8 -19 -13
-24 -6 -3 5 1 9 9 9 8 0 15 -2 15 -3z m1957 -9 c0 -8 -4 -12 -9 -9 -5 3 -6 10
-3 15 9 13 12 11 12 -6z m-1917 -119 c-7 -7 -13 -7 -20 0 -6 6 -3 10 10 10 13
0 16 -4 10 -10z m-430 -30 c0 -2 -8 -10 -17 -17 -16 -13 -17 -12 -4 4 13 16
21 21 21 13z m760 -2 c0 -8 -19 -13 -24 -6 -3 5 1 9 9 9 8 0 15 -2 15 -3z
m950 0 c0 -8 -19 -13 -24 -6 -3 5 1 9 9 9 8 0 15 -2 15 -3z m317 -9 c0 -8 -4
-12 -9 -9 -5 3 -6 10 -3 15 9 13 12 11 12 -6z m438 6 c3 -5 2 -12 -3 -15 -5
-3 -9 1 -9 9 0 17 3 19 12 6z m-120 -160 c3 -5 2 -12 -3 -15 -5 -3 -9 1 -9 9
0 17 3 19 12 6z m645 3 c0 -8 -19 -13 -24 -6 -3 5 1 9 9 9 8 0 15 -2 15 -3z
m-2550 -40 c0 -8 -19 -13 -24 -6 -3 5 1 9 9 9 8 0 15 -2 15 -3z m464 -2 c3 -5
-1 -9 -9 -9 -8 0 -12 4 -9 9 3 4 7 8 9 8 2 0 6 -4 9 -8z m-1001 -37 c-3 -9 -8
-14 -10 -11 -3 3 -2 9 2 15 9 16 15 13 8 -4z m687 -69 c0 -2 -8 -10 -17 -17
-16 -13 -17 -12 -4 4 13 16 21 21 21 13z m-643 -21 c0 -8 -4 -12 -9 -9 -5 3
-6 10 -3 15 9 13 12 11 12 -6z m2733 9 c0 -8 -19 -13 -24 -6 -3 5 1 9 9 9 8 0
15 -2 15 -3z m120 -78 c0 -2 -8 -10 -17 -17 -16 -13 -17 -12 -4 4 13 16 21 21
21 13z m-3054 -92 c1 -9 0 -13 -4 -10 -3 4 -7 14 -8 22 -1 9 0 13 4 10 3 -4 7
-14 8 -22z m3401 11 c0 -8 -4 -12 -9 -9 -5 3 -6 10 -3 15 9 13 12 11 12 -6z
m120 -10 c0 -8 -4 -12 -9 -9 -5 3 -6 10 -3 15 9 13 12 11 12 -6z m320 0 c0 -8
-4 -12 -9 -9 -5 3 -6 10 -3 15 9 13 12 11 12 -6z m-4273 -193 c2 -4 -4 -8 -14
-8 -10 0 -16 4 -14 8 3 4 9 8 14 8 5 0 11 -4 14 -8z m4710 0 c3 -5 -1 -9 -9
-9 -8 0 -12 4 -9 9 3 4 7 8 9 8 2 0 6 -4 9 -8z m-4513 -39 c13 -16 12 -17 -3
-4 -10 7 -18 15 -18 17 0 8 8 3 21 -13z m4315 2 c-1 -8 -5 -17 -8 -21 -5 -4
-4 16 1 34 3 9 9 -1 7 -13z m-522 -3 c3 -5 -1 -9 -9 -9 -8 0 -12 4 -9 9 3 4 7
8 9 8 2 0 6 -4 9 -8z m-3721 -77 c-3 -9 -8 -14 -10 -11 -3 3 -2 9 2 15 9 16
15 13 8 -4z m4364 0 c0 -8 -4 -12 -9 -9 -5 3 -6 10 -3 15 9 13 12 11 12 -6z
m-4482 -4 c3 -5 2 -12 -3 -15 -5 -3 -9 1 -9 9 0 17 3 19 12 6z m3960 0 c3 -5
2 -12 -3 -15 -5 -3 -9 1 -9 9 0 17 3 19 12 6z m360 0 c3 -5 2 -12 -3 -15 -5
-3 -9 1 -9 9 0 17 3 19 12 6z m-4998 -156 c0 -8 -4 -12 -9 -9 -5 3 -6 10 -3
15 9 13 12 11 12 -6z m-191 -47 c3 -4 -1 -5 -10 -4 -8 1 -18 5 -22 8 -3 4 1 5
10 4 8 -1 18 -5 22 -8z m5229 -27 c3 -5 2 -12 -3 -15 -5 -3 -9 1 -9 9 0 17 3
19 12 6z m-4799 -177 c1 -9 0 -13 -4 -10 -3 4 -7 14 -8 22 -1 9 0 13 4 10 3
-4 7 -14 8 -22z m-279 1 c0 -8 -4 -12 -9 -9 -5 3 -6 10 -3 15 9 13 12 11 12
-6z m-387 -271 c0 -8 -19 -13 -24 -6 -3 5 1 9 9 9 8 0 15 -2 15 -3z m-166 -82
c3 -5 -1 -9 -9 -9 -8 0 -12 4 -9 9 3 4 7 8 9 8 2 0 6 -4 9 -8z m351 -41 c3 -5
2 -12 -3 -15 -5 -3 -9 1 -9 9 0 17 3 19 12 6z m-437 -86 c-3 -3 -9 2 -12 12
-6 14 -5 15 5 6 7 -7 10 -15 7 -18z m277 -234 c3 -5 2 -12 -3 -15 -5 -3 -9 1
-9 9 0 17 3 19 12 6z m-505 -117 c0 -8 -19 -13 -24 -6 -3 5 1 9 9 9 8 0 15 -2
15 -3z m-15 -203 c3 -5 2 -12 -3 -15 -5 -3 -9 1 -9 9 0 17 3 19 12 6z m415
-117 c0 -8 -19 -13 -24 -6 -3 5 1 9 9 9 8 0 15 -2 15 -3z m-214 -39 c-1 -8 -5
-17 -8 -21 -5 -4 -4 16 1 34 3 9 9 -1 7 -13z m118 -3 c3 -5 -1 -9 -9 -9 -8 0
-12 4 -9 9 3 4 7 8 9 8 2 0 6 -4 9 -8z m-278 -328 c1 -9 0 -13 -4 -10 -3 4 -7
14 -8 22 -1 9 0 13 4 10 3 -4 7 -14 8 -22z m81 -479 c0 -8 -4 -12 -9 -9 -5 3
-6 10 -3 15 9 13 12 11 12 -6z m-241 -155 c0 -12 -4 -16 -9 -11 -5 5 -6 14 -3
20 10 15 12 14 12 -9z m-196 4 c0 -8 -19 -13 -24 -6 -3 5 1 9 9 9 8 0 15 -2
15 -3z m475 -153 c3 -5 2 -12 -3 -15 -5 -3 -9 1 -9 9 0 17 3 19 12 6z m9 -329
c3 -5 -1 -9 -9 -9 -8 0 -12 4 -9 9 3 4 7 8 9 8 2 0 6 -4 9 -8z m-167 -327 c0
-8 -4 -12 -9 -9 -5 3 -6 10 -3 15 9 13 12 11 12 -6z m-122 -144 c3 -5 2 -12
-3 -15 -5 -3 -9 1 -9 9 0 17 3 19 12 6z m320 -10 c3 -5 2 -12 -3 -15 -5 -3 -9
1 -9 9 0 17 3 19 12 6z m-265 -115 c0 -2 -8 -10 -17 -17 -16 -13 -17 -12 -4 4
13 16 21 21 21 13z m394 -44 c3 -5 -1 -9 -9 -9 -8 0 -12 4 -9 9 3 4 7 8 9 8 2
0 6 -4 9 -8z m73 -277 c0 -8 -4 -12 -9 -9 -5 3 -6 10 -3 15 9 13 12 11 12 -6z
m-307 -41 c0 -8 -19 -13 -24 -6 -3 5 1 9 9 9 8 0 15 -2 15 -3z m64 -2 c3 -5
-1 -9 -9 -9 -8 0 -12 4 -9 9 3 4 7 8 9 8 2 0 6 -4 9 -8z m201 -151 c3 -5 2
-12 -3 -15 -5 -3 -9 1 -9 9 0 17 3 19 12 6z m-114 -88 c13 -16 12 -17 -3 -4
-17 13 -22 21 -14 21 2 0 10 -8 17 -17z m355 -249 c1 -9 0 -13 -4 -10 -3 4 -7
14 -8 22 -1 9 0 13 4 10 3 -4 7 -14 8 -22z m-42 -112 c3 -5 -1 -9 -9 -9 -8 0
-12 4 -9 9 3 4 7 8 9 8 2 0 6 -4 9 -8z m122 -202 c0 -12 -4 -16 -9 -11 -5 5
-6 14 -3 20 10 15 12 14 12 -9z m-272 -198 c2 -4 -4 -8 -14 -8 -10 0 -16 4
-14 8 3 4 9 8 14 8 5 0 11 -4 14 -8z m597 -39 c13 -16 12 -17 -3 -4 -10 7 -18
15 -18 17 0 8 8 3 21 -13z m-206 -72 c3 -5 2 -12 -3 -15 -5 -3 -9 1 -9 9 0 17
3 19 12 6z m160 -10 c3 -5 2 -12 -3 -15 -5 -3 -9 1 -9 9 0 17 3 19 12 6z
m-114 -78 c13 -16 12 -17 -3 -4 -10 7 -18 15 -18 17 0 8 8 3 21 -13z m-170
-10 c13 -16 12 -17 -3 -4 -17 13 -22 21 -14 21 2 0 10 -8 17 -17z m126 -78 c0
-8 -4 -12 -9 -9 -5 3 -6 10 -3 15 9 13 12 11 12 -6z m-122 -234 c3 -5 2 -12
-3 -15 -5 -3 -9 1 -9 9 0 17 3 19 12 6z"/>
<path d="M7043 7470 c-22 -9 -6112 -6093 -6114 -6108 0 -4 -2 -16 -4 -26 -5
-26 11 -54 55 -96 168 -159 217 -202 373 -323 510 -398 1126 -684 1767 -821
63 -14 135 -28 160 -31 25 -4 63 -10 85 -15 22 -4 47 -8 55 -8 15 -1 84 -9
145 -17 187 -27 766 -27 935 -1 40 7 111 16 165 22 28 3 57 7 65 9 8 3 33 7
55 11 246 37 701 169 910 264 11 5 49 21 85 36 247 101 599 305 857 497 726
541 1263 1286 1541 2137 68 209 124 423 147 560 3 19 10 58 15 85 10 54 15 88
26 180 3 33 8 68 10 78 26 146 25 757 -2 955 -2 17 -6 47 -8 65 -3 17 -8 55
-11 82 -24 183 -104 518 -175 734 -131 395 -339 809 -573 1141 -153 218 -418
529 -497 583 -27 19 -35 20 -67 7z"/>
<path d="M3900 7351 c0 -3 -28 -6 -62 -6 -57 0 -201 -11 -245 -19 -57 -10 -91
-17 -113 -22 -14 -3 -36 -7 -50 -10 -14 -2 -38 -7 -55 -11 -16 -4 -34 -8 -40
-9 -5 -1 -56 -14 -112 -29 -82 -22 -100 -30 -96 -44 4 -12 3 -13 -5 -2 -6 9
-17 11 -33 5 -13 -4 -28 -9 -34 -10 -12 -3 -145 -54 -195 -75 -54 -22 -364
-179 -370 -187 -3 -4 -17 -13 -32 -19 -16 -7 -28 -21 -29 -30 0 -10 -3 -13 -5
-7 -5 12 -110 -52 -134 -81 -7 -8 -19 -15 -27 -15 -7 0 -16 -7 -19 -15 -4 -8
-11 -15 -16 -15 -8 0 -133 -98 -178 -140 -9 -8 -37 -34 -63 -58 -27 -24 -45
-48 -41 -54 4 -6 3 -9 -2 -5 -14 8 -87 -60 -78 -74 4 -7 3 -9 -3 -6 -13 8 -96
-81 -88 -94 4 -5 2 -8 -3 -7 -9 3 -101 -91 -102 -103 0 -4 -13 -21 -29 -40
-16 -18 -27 -37 -25 -41 3 -4 1 -8 -4 -8 -17 0 -210 -304 -204 -322 1 -4 -2
-8 -7 -8 -9 0 -37 -60 -33 -72 1 -5 -2 -8 -6 -8 -13 0 -33 -50 -26 -62 4 -6 3
-8 -2 -5 -6 3 -15 -6 -21 -21 -7 -15 -24 -54 -39 -87 -22 -50 -107 -280 -104
-280 1 0 -1 -7 -4 -15 -3 -8 -10 -35 -17 -60 -7 -25 -14 -52 -16 -60 -3 -8 -5
-27 -6 -42 -1 -14 -5 -24 -9 -21 -5 2 -8 -6 -9 -19 0 -13 -2 -30 -5 -38 -15
-59 -30 -139 -39 -215 -2 -22 -9 -74 -14 -115 -5 -41 -9 -96 -8 -123 1 -26 0
-47 -3 -47 -10 0 -5 -85 5 -92 7 -5 7 -8 0 -8 -7 0 -10 -34 -9 -92 3 -117 2
-111 17 -102 9 6 9 4 -1 -8 -8 -11 -11 -32 -8 -60 2 -24 8 -74 11 -113 4 -38
12 -78 17 -89 8 -14 7 -17 -3 -11 -8 5 -10 4 -5 -4 5 -7 9 -22 10 -34 6 -47
19 -112 24 -121 3 -5 7 -27 9 -50 2 -22 7 -42 11 -46 4 -3 8 -14 9 -25 3 -20
10 -56 13 -65 2 -3 2 -9 1 -13 -1 -4 4 -17 10 -28 6 -11 12 -30 15 -42 10 -55
69 -205 77 -200 6 3 7 1 3 -6 -10 -16 3 -53 16 -45 7 4 8 2 4 -5 -10 -16 3
-53 16 -45 7 4 8 2 4 -4 -6 -10 43 -132 79 -192 8 -14 22 -42 32 -62 10 -21
21 -38 25 -38 5 0 8 -7 8 -15 0 -8 4 -15 10 -15 5 0 9 -3 8 -7 -3 -13 24 -63
32 -58 4 2 7 -2 7 -8 0 -18 112 -187 124 -187 5 0 8 -3 7 -7 -4 -15 34 -63 45
-56 6 3 7 1 3 -5 -4 -7 4 -23 18 -37 14 -14 23 -25 21 -25 -2 0 9 -15 25 -32
15 -18 39 -46 51 -61 23 -26 25 -27 47 -11 19 13 21 18 10 32 -10 14 -10 15 2
5 11 -10 25 -1 74 49 34 34 60 66 58 71 -1 5 1 6 6 3 12 -7 65 52 57 64 -3 5
0 7 7 5 8 -3 45 27 85 69 l72 74 -19 23 c-11 13 -23 29 -28 34 -4 6 -28 35
-52 66 -25 31 -51 65 -57 75 -7 11 -30 44 -51 74 -42 61 -76 119 -117 197 -15
30 -32 50 -38 46 -6 -3 -7 -1 -3 5 4 6 -2 31 -12 54 -40 88 -73 165 -77 178 0
3 -20 64 -44 135 -23 72 -45 149 -48 173 -3 23 -10 42 -15 42 -5 0 -7 4 -3 9
3 6 1 29 -5 53 -6 24 -12 64 -15 89 -2 26 -7 66 -10 90 -4 24 -9 62 -11 84 -5
47 -4 305 0 355 2 19 7 69 11 110 3 41 9 79 12 84 4 5 1 6 -5 2 -6 -4 -5 5 3
21 11 21 12 29 2 35 -9 6 -9 8 1 8 6 0 12 10 12 23 0 12 9 55 19 95 11 39 17
72 14 72 -3 0 0 7 7 15 7 8 10 15 7 15 -3 0 3 26 14 58 11 31 22 64 24 73 2 8
10 32 19 52 8 21 15 39 16 42 0 3 9 25 20 51 11 25 20 48 20 51 0 3 20 46 45
95 25 50 42 95 38 101 -3 5 -2 7 4 4 5 -3 20 15 34 41 13 26 28 50 33 53 5 4
5 13 1 20 -5 8 -5 11 0 7 5 -5 26 20 49 55 22 34 44 64 48 65 4 2 8 8 8 13 0
8 18 31 55 73 6 6 22 27 36 46 15 19 54 64 87 100 49 53 58 68 49 80 -10 13
-10 13 4 3 13 -11 20 -8 41 15 14 15 51 50 83 77 32 28 69 60 82 73 13 12 28
22 33 22 6 0 10 3 10 8 0 4 18 18 40 32 22 14 38 30 36 37 -3 7 1 10 10 6 18
-7 46 15 37 30 -3 6 -1 7 5 3 6 -4 24 2 39 12 46 32 176 107 210 121 18 7 30
18 26 24 -3 5 -1 7 5 4 5 -4 27 2 49 13 109 55 349 140 463 164 14 3 57 12 95
20 39 8 84 17 100 20 17 2 30 5 30 6 0 1 27 3 60 6 76 6 87 8 103 17 7 5 12 3
12 -3 0 -6 5 -8 12 -4 14 9 302 9 317 0 6 -4 11 -1 11 6 0 8 3 9 8 3 4 -6 21
-11 37 -12 17 0 53 -4 80 -8 28 -4 66 -8 85 -10 20 -1 45 -5 55 -8 11 -4 31
-8 45 -11 72 -14 163 -37 223 -56 38 -12 75 -19 83 -16 9 3 12 1 9 -4 -3 -6
-1 -11 4 -11 15 -2 23 -4 51 -16 14 -6 43 -18 64 -27 22 -9 46 -14 53 -11 9 3
11 0 7 -7 -5 -8 -1 -9 12 -4 10 4 15 4 11 0 -7 -7 177 -105 201 -107 6 0 12
-4 12 -9 0 -5 11 -13 24 -18 13 -5 54 -29 91 -54 36 -25 70 -46 75 -46 4 0 10
-3 12 -7 2 -5 39 -35 82 -68 43 -33 85 -65 92 -73 8 -7 19 -10 25 -6 7 4 9 3
5 -4 -3 -6 -3 -13 1 -15 5 -3 95 82 201 188 l194 193 -23 26 c-22 26 -47 36
-33 14 5 -7 3 -8 -5 -4 -7 5 -10 11 -7 14 9 8 -25 42 -41 42 -7 0 -13 6 -13
13 0 6 -12 20 -28 29 -15 10 -56 40 -92 67 -36 27 -68 47 -72 44 -5 -2 -8 0
-8 6 0 6 -11 18 -25 27 -21 14 -28 14 -43 3 -15 -12 -16 -12 -4 2 15 20 17 19
-155 116 -24 13 -43 20 -43 16 0 -4 -4 -3 -8 3 -17 27 -386 191 -467 208 -5 2
-35 10 -65 20 -95 30 -243 68 -280 71 -19 1 -42 5 -50 8 -26 10 -185 33 -303
43 -94 8 -367 12 -367 5z m-135 -140 c3 -5 2 -12 -3 -15 -5 -3 -9 1 -9 9 0 17
3 19 12 6z m640 -10 c3 -5 2 -12 -3 -15 -5 -3 -9 1 -9 9 0 17 3 19 12 6z
m-235 -37 c0 -8 -19 -13 -24 -6 -3 5 1 9 9 9 8 0 15 -2 15 -3z m485 -4 c3 -6
-1 -7 -9 -4 -18 7 -21 14 -7 14 6 0 13 -4 16 -10z m-835 -34 c0 -2 -8 -10 -17
-17 -16 -13 -17 -12 -4 4 13 16 21 21 21 13z m946 -86 c0 -12 -4 -16 -9 -11
-5 5 -6 14 -3 20 10 15 12 14 12 -9z m284 4 c0 -8 -19 -13 -24 -6 -3 5 1 9 9
9 8 0 15 -2 15 -3z m164 -2 c3 -5 -1 -9 -9 -9 -8 0 -12 4 -9 9 3 4 7 8 9 8 2
0 6 -4 9 -8z m-2239 -41 c-9 -8 -36 -10 -30 -2 2 4 11 8 20 8 8 0 13 -3 10 -6z
m325 3 c0 -8 -19 -13 -24 -6 -3 5 1 9 9 9 8 0 15 -2 15 -3z m1825 -92 c-3 -3
-11 0 -18 7 -9 10 -8 11 6 5 10 -3 15 -9 12 -12z m-560 -21 c3 -5 2 -12 -3
-15 -5 -3 -9 1 -9 9 0 17 3 19 12 6z m-1431 -9 c3 -5 -1 -9 -9 -9 -8 0 -12 4
-9 9 3 4 7 8 9 8 2 0 6 -4 9 -8z m1126 2 c0 -8 -19 -13 -24 -6 -3 5 1 9 9 9 8
0 15 -2 15 -3z m-80 -40 c0 -8 -19 -13 -24 -6 -3 5 1 9 9 9 8 0 15 -2 15 -3z
m1195 -3 c-9 -8 -36 -10 -30 -2 2 4 11 8 20 8 8 0 13 -3 10 -6z m229 -39 c3
-5 -1 -9 -9 -9 -8 0 -12 4 -9 9 3 4 7 8 9 8 2 0 6 -4 9 -8z m-2800 -80 c3 -5
-1 -9 -9 -9 -8 0 -12 4 -9 9 3 4 7 8 9 8 2 0 6 -4 9 -8z m496 2 c0 -8 -19 -13
-24 -6 -3 5 1 9 9 9 8 0 15 -2 15 -3z m-617 -79 c-3 -9 -8 -14 -10 -11 -3 3
-2 9 2 15 9 16 15 13 8 -4z m-516 -90 c0 -8 -4 -12 -9 -9 -5 3 -6 10 -3 15 9
13 12 11 12 -6z m3363 9 c0 -8 -19 -13 -24 -6 -3 5 1 9 9 9 8 0 15 -2 15 -3z
m80 -40 c0 -8 -19 -13 -24 -6 -3 5 1 9 9 9 8 0 15 -2 15 -3z m-3359 -81 c13
-16 12 -17 -3 -4 -17 13 -22 21 -14 21 2 0 10 -8 17 -17z m-81 -39 c0 -8 -19
-13 -24 -6 -3 5 1 9 9 9 8 0 15 -2 15 -3z m3317 -9 c0 -8 -4 -12 -9 -9 -5 3
-6 10 -3 15 9 13 12 11 12 -6z m213 9 c0 -8 -19 -13 -24 -6 -3 5 1 9 9 9 8 0
15 -2 15 -3z m-10 -118 c0 -2 -7 -7 -16 -10 -8 -3 -12 -2 -9 4 6 10 25 14 25
6z m-3324 -52 c1 -9 0 -13 -4 -10 -3 4 -7 14 -8 22 -1 9 0 13 4 10 3 -4 7 -14
8 -22z m-506 -150 c0 -8 -19 -13 -24 -6 -3 5 1 9 9 9 8 0 15 -2 15 -3z m230
-28 c0 -2 -8 -10 -17 -17 -16 -13 -17 -12 -4 4 13 16 21 21 21 13z m-243 -301
c0 -8 -4 -12 -9 -9 -5 3 -6 10 -3 15 9 13 12 11 12 -6z m-121 -315 c0 -12 -4
-16 -9 -11 -5 5 -6 14 -3 20 10 15 12 14 12 -9z m-240 -155 c-1 -8 -5 -17 -8
-21 -5 -4 -4 16 1 34 3 9 9 -1 7 -13z m-116 -161 c0 -8 -19 -13 -24 -6 -3 5 1
9 9 9 8 0 15 -2 15 -3z m-165 -323 c3 -5 2 -12 -3 -15 -5 -3 -9 1 -9 9 0 17 3
19 12 6z m175 -37 c0 -8 -19 -13 -24 -6 -3 5 1 9 9 9 8 0 15 -2 15 -3z m154
-122 c3 -5 -1 -9 -9 -9 -8 0 -12 4 -9 9 3 4 7 8 9 8 2 0 6 -4 9 -8z m-9 -410
c-3 -3 -11 0 -18 7 -9 10 -8 11 6 5 10 -3 15 -9 12 -12z m-119 -78 c1 -9 0
-13 -4 -10 -3 4 -7 14 -8 22 -1 9 0 13 4 10 3 -4 7 -14 8 -22z m-196 -310 c0
-8 -19 -13 -24 -6 -3 5 1 9 9 9 8 0 15 -2 15 -3z m86 -126 c3 -4 -1 -5 -10 -4
-8 1 -18 5 -22 8 -3 4 1 5 10 4 8 -1 18 -5 22 -8z m307 -273 c-3 -9 -8 -14
-10 -11 -3 3 -2 9 2 15 9 16 15 13 8 -4z m-312 -42 c13 -16 12 -17 -3 -4 -10
7 -18 15 -18 17 0 8 8 3 21 -13z m239 -79 c0 -8 -19 -13 -24 -6 -3 5 1 9 9 9
8 0 15 -2 15 -3z m71 -91 c13 -16 12 -17 -3 -4 -17 13 -22 21 -14 21 2 0 10
-8 17 -17z m369 -257 c0 -2 -8 -10 -17 -17 -16 -13 -17 -12 -4 4 13 16 21 21
21 13z m40 -96 c0 -5 -5 -10 -11 -10 -5 0 -7 5 -4 10 3 6 8 10 11 10 2 0 4 -4
4 -10z m71 -53 c-10 -9 -11 -8 -5 6 3 10 9 15 12 12 3 -3 0 -11 -7 -18z m-221
-303 c0 -8 -19 -13 -24 -6 -3 5 1 9 9 9 8 0 15 -2 15 -3z"/>
<path d="M3989 6305 c-2 -2 -45 -6 -94 -10 -180 -13 -238 -23 -228 -39 4 -6 0
-5 -9 2 -9 7 -19 9 -21 5 -3 -5 -20 -10 -39 -11 -18 -2 -35 -7 -36 -12 -2 -6
-8 -8 -13 -4 -5 3 -26 0 -47 -7 -20 -7 -39 -14 -42 -14 -3 -1 -33 -10 -68 -21
-47 -14 -61 -23 -56 -34 4 -12 2 -12 -7 -3 -9 9 -20 8 -48 -5 -20 -9 -38 -19
-41 -22 -3 -3 -14 -6 -25 -8 -11 -2 -25 -9 -30 -15 -6 -7 -17 -13 -25 -15 -29
-5 -59 -25 -53 -35 3 -6 1 -7 -5 -3 -14 8 -74 -28 -64 -39 4 -5 1 -5 -5 -1
-10 6 -64 -23 -83 -45 -3 -3 -20 -14 -37 -24 -18 -11 -33 -23 -33 -27 0 -4 -6
-8 -13 -8 -23 0 -269 -230 -263 -247 3 -7 -1 -10 -10 -6 -7 3 -14 1 -14 -3 0
-5 -14 -23 -30 -41 -17 -18 -30 -37 -30 -42 0 -6 -4 -11 -8 -11 -13 0 -73 -90
-66 -101 3 -5 1 -8 -4 -7 -10 3 -62 -66 -62 -82 0 -5 -6 -15 -13 -22 -17 -18
-83 -150 -79 -160 1 -4 -2 -8 -7 -8 -5 0 -11 -8 -14 -17 -3 -10 -17 -44 -30
-75 -14 -32 -22 -58 -20 -58 3 0 1 -6 -5 -12 -9 -12 -34 -88 -48 -149 -3 -13
-8 -35 -11 -48 -5 -18 -3 -22 7 -16 9 6 11 4 6 -4 -5 -7 -11 -9 -14 -6 -4 4
-14 -31 -24 -77 -12 -63 -13 -86 -5 -97 9 -12 9 -13 0 -7 -9 5 -13 -2 -14 -26
-1 -18 -3 -55 -5 -83 -10 -141 -3 -313 17 -430 6 -33 12 -71 14 -85 9 -64 68
-261 104 -345 10 -22 26 -60 36 -85 10 -25 27 -57 37 -72 10 -14 18 -31 18
-38 0 -6 5 -8 12 -4 7 4 8 3 4 -4 -4 -6 19 -52 50 -101 49 -78 59 -89 73 -78
14 11 14 10 2 -5 -11 -15 -10 -22 15 -50 15 -18 31 -32 36 -30 5 1 7 -2 4 -6
-3 -5 4 -21 17 -35 l22 -26 162 163 c161 160 163 162 144 182 -10 11 -38 51
-61 87 -24 37 -47 67 -52 67 -5 0 -7 4 -4 9 3 5 -5 25 -19 45 -14 20 -25 39
-25 41 0 2 -11 29 -25 59 -14 30 -25 57 -25 60 0 2 -4 15 -9 28 -5 13 -9 26
-10 31 0 4 -7 22 -14 40 -8 17 -19 57 -26 87 -7 30 -15 62 -18 70 -7 17 -9 32
-11 73 -1 20 -6 26 -14 21 -9 -5 -9 -2 1 9 8 11 10 22 5 30 -9 12 -10 246 -1
300 2 16 0 27 -7 27 -7 0 -6 3 1 8 7 5 14 31 15 60 2 29 6 52 11 52 4 0 7 8 7
19 0 72 148 439 187 464 7 4 13 12 13 18 0 11 48 86 70 109 8 9 40 45 70 80
79 90 80 92 135 135 27 22 56 46 64 53 8 8 43 32 78 55 34 22 63 45 63 50 0 6
3 8 6 5 3 -3 48 16 101 43 53 27 100 49 105 49 6 0 24 6 41 14 34 15 96 36
125 41 9 2 17 4 17 5 0 2 15 5 60 13 17 3 41 8 55 11 13 3 39 7 57 8 18 1 33
5 33 8 0 8 293 5 308 -3 7 -5 12 -3 12 5 0 8 3 9 8 3 4 -6 43 -17 87 -24 90
-15 110 -19 110 -21 0 -1 11 -3 25 -6 14 -2 34 -8 45 -13 11 -6 49 -20 85 -32
74 -26 251 -116 262 -133 4 -6 8 -7 8 -3 0 7 61 -34 80 -53 3 -3 19 -15 36
-27 l31 -22 24 27 c13 15 23 31 21 35 -1 5 1 6 6 3 10 -6 262 246 262 262 0
15 -35 33 -45 24 -5 -4 -5 -2 -2 4 7 13 -53 61 -170 137 -93 61 -321 170 -340
163 -8 -3 -12 -2 -9 3 12 18 -251 92 -374 105 -14 1 -31 5 -36 9 -6 3 -51 8
-100 11 -49 3 -89 6 -89 6 0 1 -19 2 -42 3 -22 1 -39 -1 -36 -5 2 -5 -7 -4
-20 1 -14 6 -27 8 -28 6z m345 -63 c3 -5 -1 -9 -9 -9 -8 0 -12 4 -9 9 3 4 7 8
9 8 2 0 6 -4 9 -8z m271 -81 c3 -5 2 -12 -3 -15 -5 -3 -9 1 -9 9 0 17 3 19 12
6z m-990 -120 c-9 -8 -36 -10 -30 -2 2 4 11 8 20 8 8 0 13 -3 10 -6z m-205
-25 c0 -2 -8 -10 -17 -17 -16 -13 -17 -12 -4 4 13 16 21 21 21 13z m1116 -91
c-1 -8 -5 -17 -8 -21 -5 -4 -4 16 1 34 3 9 9 -1 7 -13z m-1081 -4 c3 -5 2 -12
-3 -15 -5 -3 -9 1 -9 9 0 17 3 19 12 6z m329 1 c3 -5 -1 -9 -9 -9 -8 0 -12 4
-9 9 3 4 7 8 9 8 2 0 6 -4 9 -8z m-804 -38 c0 -8 -19 -13 -24 -6 -3 5 1 9 9 9
8 0 15 -2 15 -3z m1757 -129 c0 -8 -4 -12 -9 -9 -5 3 -6 10 -3 15 9 13 12 11
12 -6z m-1911 -117 c3 -4 -1 -5 -10 -4 -8 1 -18 5 -22 8 -3 4 1 5 10 4 8 -1
18 -5 22 -8z m164 -112 c0 -2 -8 -10 -17 -17 -16 -13 -17 -12 -4 4 13 16 21
21 21 13z m-125 -166 c-3 -5 -12 -10 -18 -10 -7 0 -6 4 3 10 19 12 23 12 15 0z
m-124 -117 c13 -16 12 -17 -3 -4 -10 7 -18 15 -18 17 0 8 8 3 21 -13z m-46
-192 c3 -5 2 -12 -3 -15 -5 -3 -9 1 -9 9 0 17 3 19 12 6z m-399 -177 c1 -9 0
-13 -4 -10 -3 4 -7 14 -8 22 -1 9 0 13 4 10 3 -4 7 -14 8 -22z m317 -69 c-3
-9 -8 -14 -10 -11 -3 3 -2 9 2 15 9 16 15 13 8 -4z m-107 -47 c3 -4 -1 -5 -10
-4 -8 1 -18 5 -22 8 -3 4 1 5 10 4 8 -1 18 -5 22 -8z m-241 -318 c3 -6 -1 -7
-9 -4 -18 7 -21 14 -7 14 6 0 13 -4 16 -10z m85 -116 c0 -8 -19 -13 -24 -6 -3
5 1 9 9 9 8 0 15 -2 15 -3z m-4 -526 c3 -4 -1 -5 -10 -4 -8 1 -18 5 -22 8 -3
4 1 5 10 4 8 -1 18 -5 22 -8z m158 -116 c3 -5 -1 -9 -9 -9 -8 0 -12 4 -9 9 3
4 7 8 9 8 2 0 6 -4 9 -8z m191 -401 c3 -5 2 -12 -3 -15 -5 -3 -9 1 -9 9 0 17
3 19 12 6z"/>
<path d="M3977 5483 c-1 -1 -29 -4 -62 -7 -83 -8 -165 -27 -159 -37 3 -5 -2
-6 -10 -3 -20 8 -118 -25 -111 -37 4 -5 0 -6 -8 -4 -14 6 -137 -50 -148 -67
-3 -5 -10 -10 -15 -9 -19 0 -140 -94 -137 -107 2 -6 -3 -9 -11 -6 -15 6 -128
-115 -184 -198 -41 -60 -94 -158 -86 -158 3 0 -2 -7 -10 -16 -14 -13 -18 -28
-15 -50 0 -4 -4 -10 -10 -13 -6 -4 -12 -16 -14 -26 -2 -11 -7 -28 -12 -37 -4
-10 -8 -29 -9 -43 0 -14 -4 -25 -7 -25 -8 0 -18 -66 -25 -160 -2 -41 -6 -83
-8 -92 -2 -10 1 -18 7 -18 7 0 8 -3 1 -10 -13 -13 4 -162 20 -172 8 -6 8 -8
-1 -8 -8 0 -5 -19 8 -62 10 -35 18 -63 16 -63 -12 -2 119 -266 152 -305 25
-30 31 -33 45 -21 9 7 13 18 9 25 -3 6 -3 8 2 4 5 -5 54 38 111 94 l103 102
-20 27 c-10 15 -19 32 -19 38 0 6 -4 11 -10 11 -5 0 -9 3 -8 8 4 12 -24 72
-32 67 -4 -2 -6 7 -4 20 1 14 -1 25 -5 25 -4 0 -7 8 -8 18 -4 44 -16 101 -22
98 -11 -7 -4 218 8 263 7 23 10 50 6 59 -3 9 -3 13 1 9 10 -9 35 64 29 81 -3
7 -1 11 4 8 4 -3 19 18 32 47 13 29 32 61 42 72 10 10 15 25 13 32 -3 7 -2 12
2 11 4 -1 44 35 90 80 45 45 82 79 82 75 0 -3 8 1 18 9 9 9 38 27 64 40 26 14
44 29 40 33 -4 5 -2 5 4 2 15 -8 74 12 74 25 0 5 4 7 9 4 4 -3 22 -1 40 4 113
32 325 29 409 -5 18 -8 33 -14 35 -14 1 0 15 -4 30 -10 16 -6 34 -8 40 -4 7 3
9 3 5 -2 -10 -11 60 -47 74 -39 6 4 8 3 4 -4 -3 -6 1 -15 11 -20 13 -8 25 -2
52 26 20 19 35 39 33 44 -1 5 1 7 6 4 12 -7 65 52 57 64 -3 5 0 7 7 5 17 -7
103 80 93 94 -3 6 -11 9 -16 5 -5 -3 -8 -1 -7 6 2 6 -10 18 -27 28 -16 9 -32
20 -35 23 -15 17 -153 79 -163 73 -7 -4 -8 -3 -4 2 9 10 -91 47 -104 38 -5 -3
-9 -1 -9 4 0 13 -182 43 -274 45 -42 1 -78 1 -79 0z m108 -122 c3 -5 2 -12 -3
-15 -5 -3 -9 1 -9 9 0 17 3 19 12 6z m335 -37 c0 -8 -19 -13 -24 -6 -3 5 1 9
9 9 8 0 15 -2 15 -3z m-173 -39 c0 -8 -4 -12 -9 -9 -5 3 -6 10 -3 15 9 13 12
11 12 -6z m-557 -29 c0 -2 -8 -10 -17 -17 -16 -13 -17 -12 -4 4 13 16 21 21
21 13z m516 -51 c-1 -8 -5 -17 -8 -21 -5 -4 -4 16 1 34 3 9 9 -1 7 -13z m317
-80 c-3 -9 -8 -14 -10 -11 -3 3 -2 9 2 15 9 16 15 13 8 -4z m-988 -44 c-9 -8
-36 -10 -30 -2 2 4 11 8 20 8 8 0 13 -3 10 -6z m-248 -126 c0 -8 -4 -12 -9 -9
-5 3 -6 10 -3 15 9 13 12 11 12 -6z m-156 -32 c13 -16 12 -17 -3 -4 -17 13
-22 21 -14 21 2 0 10 -8 17 -17z m-3 -768 c-3 -3 -9 2 -12 12 -6 14 -5 15 5 6
7 -7 10 -15 7 -18z m82 -349 c0 -2 -7 -7 -16 -10 -8 -3 -12 -2 -9 4 6 10 25
14 25 6z"/>
</g>
</svg>
